<svg xmlns="http://www.w3.org/2000/svg" width="192" height="56.002" viewBox="0 0 192 56.002"><g transform="translate(-96 -72)"><g transform="translate(96 72)" fill="none" stroke="#fff" stroke-width="4"><rect width="192" height="56" stroke="none"/><rect x="2" y="2" width="188" height="52" fill="none"/></g><text transform="translate(220 107)" fill="#fff" font-size="24" font-family="Bahnschrift"><tspan x="-44.701" y="0">Rs. 4000</tspan></text><path d="M-856-912h-56v-56h56v56Zm-32.792-42a1.075,1.075,0,0,0-.838.368,1.49,1.49,0,0,0-.231,1.2,7.837,7.837,0,0,0,3.26,4.882,18.737,18.737,0,0,0-6.775,6.755c-2.117,3.417-3,6.766-2.481,9.43.708,3.645,4.024,5.787,9.588,6.193.961.07,1.89.105,2.761.105,8.411,0,10.824-3.273,11.367-6.019.536-2.71-.5-6.271-2.833-9.77-2.134-3.2-5.012-5.82-7.51-6.849a9.667,9.667,0,0,0,2.312-3.188,5.25,5.25,0,0,0,.7-2.731.328.328,0,0,0-.241-.277,2.085,2.085,0,0,0-.406-.036,12.711,12.711,0,0,0-2.953.614,15.566,15.566,0,0,1-1.718.428,2.189,2.189,0,0,1-.26.015,5.125,5.125,0,0,1-1.974-.561l-.113-.05A4.557,4.557,0,0,0-888.792-954Z" transform="translate(1008 1040)" fill="#fff"/><text transform="translate(123.5 109)" fill="#fff" font-size="16" font-family="CircularStd-Bold, Circular Std Bold" font-weight="700"><tspan x="-3.168" y="0">1</tspan></text></g></svg>
